<svg width="44" height="34" viewBox="0 0 44 34" fill="none" xmlns="http://www.w3.org/2000/svg">
<path d="M3.46542 1.92056L16.433 14.8937C19.2612 17.7165 23.8844 17.7189 26.715 14.8937L39.6824 1.92056C39.813 1.78997 39.794 1.57491 39.6425 1.46925C38.3199 0.546844 36.7107 0 34.9773 0H8.17078C6.4372 0 4.82798 0.546937 3.50536 1.46925C3.35386 1.57491 3.33483 1.78997 3.46542 1.92056ZM4.68493e-05 8.17064C4.68493e-05 6.80756 0.338016 5.51953 0.933328 4.38755C1.02642 4.21045 1.26239 4.17464 1.40386 4.31606L14.2072 17.1195C18.2616 21.1798 24.884 21.1821 28.9408 17.1195L41.7441 4.31606C41.8856 4.17464 42.1215 4.21045 42.2146 4.38755C42.8099 5.51953 43.1479 6.80756 43.1479 8.17064V25.2272C43.1479 29.736 39.4803 33.3979 34.9772 33.3979H8.17073C3.66769 33.3979 0 29.7359 0 25.2272L4.68493e-05 8.17064Z" fill="#555555"/>
</svg>
